<svg width="152" height="175" viewBox="0 0 152 175" fill="none" xmlns="http://www.w3.org/2000/svg">
<path d="M2.1417 173.48C2.1417 146.933 -0.578352 115.311 17.8164 93.3177C24.6625 85.1322 34.1546 77.1149 44.4378 73.8095C55.2393 70.3376 66.0634 70.7428 77.2779 70.7428C84.5553 70.7428 95.0793 68.8673 101.94 71.8076C117.182 78.3399 128.155 96.3847 134.78 110.611C141.351 124.722 144.287 138.718 147.729 153.716C149.047 159.46 150.114 165.292 150.114 171.18" stroke="white" stroke-width="3" stroke-linecap="round"/>
<path d="M67 69.5C77.2852 68.007 87.9864 73.0409 95.1622 63.9516C99.4467 58.5245 100.485 50.7354 100.485 44.0636C100.485 35.0782 100.232 27.7458 94.8357 20.1914C87.5264 9.95849 76.182 3.21343 63.5178 2.39344C58.372 2.06027 50.0986 0.846841 46.4056 5.46318C42.9548 9.7766 40.9633 15.6083 39.9395 20.9425C38.102 30.5168 37.0004 39.8556 37.0004 49.5826C37.0004 55.1059 36.8512 62.6848 42.2908 66.0089C49.2929 70.288 58.3156 69.2746 66.3916 69.2746" stroke="white" stroke-width="3" stroke-linecap="round"/>
</svg>
