<svg width="152" height="175" viewBox="0 0 152 175" fill="none" xmlns="http://www.w3.org/2000/svg">
<path d="M2.1417 173.48C2.1417 146.933 -0.578352 115.312 17.8164 93.318C24.6625 85.1325 34.1546 77.1152 44.4378 73.8099C55.2393 70.3379 65.2855 68.0003 76.5 68.0003C83.7773 68.0003 95.0793 68.8676 101.94 71.8079C117.182 78.3402 128.155 96.385 134.78 110.611C141.351 124.722 144.287 138.718 147.729 153.717C149.047 159.461 150.114 165.293 150.114 171.18" stroke="black" stroke-width="3" stroke-linecap="round"/>
<path d="M44.1175 18.267C43.9801 23.1182 43.9778 27.9931 44.0364 32.8461C44.077 36.2131 44.1476 39.5642 45.0592 42.8307C46.235 47.044 49.4242 54.2439 54.5892 54.666C59.6605 55.0805 62.8652 50.3678 63.8107 45.964C65.7651 36.8614 59.3636 30.7977 53.0468 25.2318C49.4057 22.0235 48.4102 20.1571 44 18.267" stroke="#1C1C1C" stroke-width="3" stroke-linecap="round"/>
<path d="M96.1362 35.0401C97.0785 30.279 97.9648 25.4854 98.714 20.6904C93.9333 20.26 90.2846 20.6279 86.1196 23.1187C78.8941 27.4397 74.0396 35.0272 74.3019 44.3336C74.4288 48.8359 76.7207 54.0538 81.7827 54.5707C86.9381 55.0971 91.3863 48.5993 93.3104 44.6709C94.8022 41.6254 95.4825 38.3433 96.1362 35.0401Z" stroke="#1C1C1C" stroke-width="3" stroke-linecap="round"/>
<path d="M74 69.5C84.2852 68.007 94.9864 73.0409 102.162 63.9516C106.447 58.5245 107.485 50.7354 107.485 44.0636C107.485 35.0782 107.232 27.7458 101.836 20.1914C94.5264 9.95849 83.182 3.21343 70.5178 2.39344C65.372 2.06027 57.0986 0.846841 53.4056 5.46318C49.9548 9.7766 47.9633 15.6083 46.9395 20.9425C45.102 30.5168 44.0004 39.8556 44.0004 49.5826C44.0004 55.1059 43.8512 62.6848 49.2908 66.0089C56.2929 70.288 65.3156 69.2746 73.3916 69.2746" stroke="black" stroke-width="3" stroke-linecap="round"/>
</svg>
