<svg width="152" height="183" viewBox="0 0 152 183" fill="none" xmlns="http://www.w3.org/2000/svg">
<path d="M2.1417 181.48C2.1417 154.933 -0.578352 123.312 17.8164 101.318C24.6625 93.1325 34.1546 85.1152 44.4378 81.8099C55.2393 78.3379 65.2855 76.0003 76.5 76.0003C83.7773 76.0003 95.0793 76.8676 101.94 79.8079C117.182 86.3402 128.155 104.385 134.78 118.611C141.351 132.722 144.287 146.718 147.729 161.717C149.047 167.461 150.114 173.293 150.114 179.18" stroke="white" stroke-width="3" stroke-linecap="round"/>
<path d="M74 77.5C84.2852 76.007 94.9864 81.0409 102.162 71.9516C106.447 66.5245 107.485 58.7354 107.485 52.0636C107.485 43.0782 107.232 35.7458 101.836 28.1914C94.5264 17.9585 83.182 11.2134 70.5178 10.3934C65.372 10.0603 57.0986 8.84684 53.4056 13.4632C49.9548 17.7766 47.9633 23.6083 46.9395 28.9425C45.102 38.5168 44.0004 47.8556 44.0004 57.5826C44.0004 63.1059 43.8512 70.6848 49.2908 74.0089C56.2929 78.288 65.3156 77.2746 73.3916 77.2746" stroke="white" stroke-width="3" stroke-linecap="round"/>
<path d="M55.0951 2C50.7248 9.77926 43.4 32.4702 49.064 61M49.064 61C51.5114 58.3778 58.7663 53.3956 68.2063 54.4444L72.4018 48.4133C69.3313 44.5674 62.4711 36.8756 55.9156 37.1378C50.4089 38.1867 47.176 37.9244 49.064 61Z" stroke="#c9c9c9" stroke-width="3" stroke-linecap="round"/>
<path d="M55.1289 2C56.1778 3.31111 58.1182 8.45067 57.4889 18.52C60.2859 16.9467 68.3449 14.0098 78.2045 14.8489" stroke="#c9c9c9" stroke-width="3" stroke-linecap="round"/>
<path d="M97.9049 2C102.275 9.77926 109.6 32.4702 103.936 61M103.936 61C101.489 58.3778 94.2337 53.3956 84.7937 54.4444L80.5982 48.4133C83.6687 44.5674 90.5289 36.8756 97.0844 37.1378C102.591 38.1867 105.824 37.9244 103.936 61Z" stroke="#c9c9c9" stroke-width="3" stroke-linecap="round"/>
<path d="M97.8711 2C96.8222 3.31111 94.8818 8.45067 95.5111 18.52C92.7141 16.9467 89.7422 15.3733 78.2044 14.8489" stroke="#c9c9c9" stroke-width="3" stroke-linecap="round"/>
</svg>
