<svg width="152" height="192" viewBox="0 0 152 192" fill="none" xmlns="http://www.w3.org/2000/svg">
<path d="M2.1417 190.48C2.1417 163.933 -0.578352 132.312 17.8164 110.318C24.6625 102.132 34.1546 94.1152 44.4378 90.8099C55.2393 87.3379 65.2855 85.0003 76.5 85.0003C83.7773 85.0003 95.0793 85.8676 101.94 88.8079C117.182 95.3402 128.155 113.385 134.78 127.611C141.351 141.722 144.287 155.718 147.729 170.717C149.047 176.461 150.114 182.293 150.114 188.18" stroke="black" stroke-width="3" stroke-linecap="round"/>
<path d="M74 86.5C84.2852 85.007 94.9864 90.0409 102.162 80.9516C106.447 75.5245 107.485 67.7354 107.485 61.0636C107.485 52.0782 107.232 44.7458 101.836 37.1914C94.5264 26.9585 83.182 20.2134 70.5178 19.3934C65.372 19.0603 57.0986 17.8468 53.4056 22.4632C49.9548 26.7766 47.9633 32.6083 46.9395 37.9425C45.102 47.5168 44.0004 56.8556 44.0004 66.5826C44.0004 72.1059 43.8512 79.6848 49.2908 83.0089C56.2929 87.288 65.3156 86.2746 73.3916 86.2746" stroke="black" stroke-width="3" stroke-linecap="round"/>
<path d="M70.6598 54.6713C74.5343 57.4979 85.8327 61.8095 100.031 56.4432C114.229 51.0768 111.666 45.6008 108.61 43.5336M108.61 43.5336C108.6 42.7052 108.423 42.2085 108.28 42.0148C110.379 38.9772 109.738 34.9272 109.155 33.2818C105.5 24 101.781 18.8534 99.5309 15.3096C94.7815 10.6267 92.2819 8.72826 89.0323 7.08292C85.7828 5.43758 70.6598 -0.00470293 62.036 2.77972C53.4121 5.56415 46.4131 13.4112 46.4131 14.044C43.1635 16.5753 40.039 35.9397 43.5385 40.2429C47.038 44.5461 54.9119 48.343 63.1608 52.6462C69.7599 56.0888 89.7405 54.0806 98.906 52.6462C101.781 51.3806 107.68 48.2671 108.28 45.9383C108.535 44.9461 108.618 44.1485 108.61 43.5336Z" stroke="#1C1C1C" stroke-width="3.2" stroke-linecap="square"/>
<path d="M48.9138 62.9655C48.3425 63.5654 48.3656 64.5149 48.9655 65.0862C49.5654 65.6575 50.5149 65.6344 51.0862 65.0345L48.9138 62.9655ZM65.3923 65.0114C65.9509 65.6232 66.8996 65.6663 67.5114 65.1077C68.1232 64.5491 68.1663 63.6004 67.6077 62.9886L65.3923 65.0114ZM51.0862 65.0345C51.9521 64.1253 52.8028 63.1921 53.7701 62.3764C54.7277 61.5689 55.7032 60.9638 56.7383 60.6864C58.6248 60.1807 61.3762 60.6129 65.3923 65.0114L67.6077 62.9886C63.2238 58.1871 59.3918 56.8693 55.9617 57.7886C54.3385 58.2237 52.9723 59.1249 51.8361 60.083C50.7097 61.0329 49.7146 62.1247 48.9138 62.9655L51.0862 65.0345Z" fill="#1C1C1C"/>
<path d="M82.9138 62.9655C82.3425 63.5654 82.3656 64.5149 82.9655 65.0862C83.5654 65.6575 84.5149 65.6344 85.0862 65.0345L82.9138 62.9655ZM99.3923 65.0114C99.9509 65.6232 100.9 65.6663 101.511 65.1077C102.123 64.5491 102.166 63.6004 101.608 62.9886L99.3923 65.0114ZM85.0862 65.0345C85.9521 64.1253 86.8028 63.1921 87.7701 62.3764C88.7277 61.5689 89.7032 60.9638 90.7383 60.6864C92.6248 60.1807 95.3762 60.6129 99.3923 65.0114L101.608 62.9886C97.2238 58.1871 93.3918 56.8693 89.9617 57.7886C88.3385 58.2237 86.9723 59.1249 85.8361 60.083C84.7097 61.0329 83.7146 62.1247 82.9138 62.9655L85.0862 65.0345Z" fill="#1C1C1C"/>
</svg>
