<svg width="152" height="175" viewBox="0 0 152 175" fill="none" xmlns="http://www.w3.org/2000/svg">
<path d="M2.1417 173.48C2.1417 146.933 -0.578352 115.312 17.8164 93.318C24.6625 85.1325 34.1546 77.1152 44.4378 73.8099C55.2393 70.3379 65.2855 68.0003 76.5 68.0003C83.7773 68.0003 95.0793 68.8676 101.94 71.8079C117.182 78.3402 128.155 96.385 134.78 110.611C141.351 124.722 144.287 138.718 147.729 153.717C149.047 159.461 150.114 165.293 150.114 171.18" stroke="black" stroke-width="3" stroke-linecap="round"/>
<path d="M74 69.5C84.2852 68.007 94.9864 73.0409 102.162 63.9516C106.447 58.5245 107.485 50.7354 107.485 44.0636C107.485 35.0782 107.232 27.7458 101.836 20.1914C94.5264 9.95849 83.182 3.21343 70.5178 2.39344C65.372 2.06027 57.0986 0.846841 53.4056 5.46318C49.9548 9.7766 47.9633 15.6083 46.9395 20.9425C45.102 30.5168 44.0004 39.8556 44.0004 49.5826C44.0004 55.1059 43.8512 62.6848 49.2908 66.0089C56.2929 70.288 65.3156 69.2746 73.3916 69.2746" stroke="black" stroke-width="3" stroke-linecap="round"/>
<path d="M48.9138 37.9479C48.3425 38.5478 48.3656 39.4973 48.9655 40.0686C49.5654 40.64 50.5149 40.6168 51.0862 40.0169L48.9138 37.9479ZM65.3923 39.9938C65.9509 40.6056 66.8996 40.6487 67.5114 40.0902C68.1232 39.5316 68.1663 38.5828 67.6077 37.971L65.3923 39.9938ZM51.0862 40.0169C51.9521 39.1077 52.8028 38.1745 53.7701 37.3588C54.7277 36.5513 55.7032 35.9462 56.7383 35.6688C58.6248 35.1632 61.3762 35.5953 65.3923 39.9938L67.6077 37.971C63.2238 33.1695 59.3918 31.8517 55.9617 32.7711C54.3385 33.2061 52.9723 34.1073 51.8361 35.0654C50.7097 36.0153 49.7146 37.1071 48.9138 37.9479L51.0862 40.0169Z" fill="#1C1C1C"/>
<path d="M82.9138 37.9479C82.3425 38.5478 82.3656 39.4973 82.9655 40.0686C83.5654 40.64 84.5149 40.6168 85.0862 40.0169L82.9138 37.9479ZM99.3923 39.9938C99.9509 40.6056 100.9 40.6487 101.511 40.0902C102.123 39.5316 102.166 38.5828 101.608 37.971L99.3923 39.9938ZM85.0862 40.0169C85.9521 39.1077 86.8028 38.1745 87.7701 37.3588C88.7277 36.5513 89.7032 35.9462 90.7383 35.6688C92.6248 35.1632 95.3762 35.5953 99.3923 39.9938L101.608 37.971C97.2238 33.1695 93.3918 31.8517 89.9617 32.7711C88.3385 33.2061 86.9723 34.1073 85.8361 35.0654C84.7097 36.0153 83.7146 37.1071 82.9138 37.9479L85.0862 40.0169Z" fill="#1C1C1C"/>
<path d="M70.4743 48.2236C70.3216 47.4093 69.5378 46.873 68.7236 47.0257C67.9093 47.1784 67.373 47.9622 67.5257 48.7764L70.4743 48.2236ZM85.4 50.0385C85.6974 49.2653 85.3117 48.3974 84.5385 48.1C83.7653 47.8026 82.8974 48.1883 82.6 48.9615L85.4 50.0385ZM67.5257 48.7764C68.4302 53.6006 72.2711 55.8637 76.0962 55.9372C79.8354 56.0091 83.8764 53.9998 85.4 50.0385L82.6 48.9615C81.6236 51.5002 78.9146 52.9909 76.1538 52.9378C73.4789 52.8863 71.0698 51.3994 70.4743 48.2236L67.5257 48.7764Z" fill="#1C1C1C"/>
<circle cx="76" cy="124" r="31" stroke="#1C1C1C" stroke-width="2"/>
<path d="M89.119 128.818L50 160L67.3512 137.613H58.0446L73.3452 121.302H63.5655L103 89L84.5446 112.507H94.7976L79.8125 128.818H89.119Z" stroke="#363636" stroke-width="3" stroke-linecap="square" stroke-linejoin="round"/>
</svg>
